<?xml version="1.0" standalone="no"?>
<!DOCTYPE svg PUBLIC "-//W3C//DTD SVG 20010904//EN"
 "http://www.w3.org/TR/2001/REC-SVG-20010904/DTD/svg10.dtd">
<svg version="1.0" xmlns="http://www.w3.org/2000/svg" viewBox="0 0 1080.000000 1080.000000"
 preserveAspectRatio="xMidYMid meet">

<g transform="translate(0.000000,1080.000000) scale(0.100000,-0.100000)"
fill="#000000" stroke="none">
<path d="M5205 9643 c-225 -35 -442 -168 -570 -348 -208 -293 -218 -634 -28
-960 42 -72 639 -922 676 -962 23 -25 64 -30 89 -10 32 24 681 954 718 1027
70 141 101 261 101 397 0 284 -124 529 -356 701 -141 104 -287 153 -475 157
-69 2 -138 1 -155 -2z m280 -78 c155 -34 289 -107 401 -219 156 -156 234 -343
234 -560 0 -124 -50 -274 -146 -436 -53 -89 -631 -886 -642 -884 -11 1 -610
826 -656 904 -56 95 -103 210 -123 304 -33 154 5 359 96 515 114 194 327 344
536 377 22 3 42 7 44 9 5 6 223 -2 256 -10z"/>
<path d="M5203 9275 c-81 -22 -152 -62 -215 -123 -113 -107 -158 -211 -158
-362 0 -109 25 -195 81 -279 113 -170 303 -250 514 -217 83 13 192 72 261 140
275 276 149 741 -229 842 -66 17 -186 17 -254 -1z m256 -229 c105 -54 168
-164 159 -281 -19 -233 -297 -347 -472 -194 -81 71 -117 173 -96 272 39 188
241 288 409 203z"/>
<path d="M4353 7096 c-99 -32 -207 -126 -251 -217 -25 -52 -46 -151 -37 -178
14 -46 235 -65 670 -58 324 6 449 17 477 45 16 16 -48 31 -193 44 l-126 11
-21 72 c-34 117 -116 209 -232 263 -45 21 -73 27 -150 29 -61 2 -110 -2 -137
-11z"/>
<path d="M4077 6633 c-13 -21 -18 -126 -8 -178 24 -130 107 -238 229 -297 62
-30 75 -33 167 -33 91 0 106 3 165 31 154 73 240 207 240 374 l0 67 -292 6
c-257 6 -400 15 -475 32 -12 3 -24 2 -26 -2z"/>
<path d="M4075 6011 c-63 -11 -161 -69 -240 -142 -162 -153 -258 -351 -311
-644 -33 -188 -18 -655 27 -792 6 -18 26 -46 45 -63 30 -25 43 -30 89 -30 46
0 59 5 89 30 54 48 59 77 40 226 -24 176 -24 476 -1 604 28 153 87 306 146
380 l21 25 0 -1306 0 -1305 25 -51 c83 -166 308 -165 398 2 22 40 22 43 25
798 l3 757 39 0 40 0 0 -743 c0 -822 -1 -804 63 -869 66 -66 171 -86 253 -49
53 24 109 91 123 146 8 31 11 405 11 1257 l0 1213 78 -76 c138 -135 262 -224
427 -307 193 -96 384 -145 393 -100 6 30 -44 124 -92 176 -27 29 -79 67 -127
92 -76 41 -109 75 -109 112 0 7 -17 23 -38 35 -137 78 -342 267 -454 420 -35
47 -76 103 -93 126 -64 86 -39 82 -458 84 -205 0 -390 -2 -412 -6z"/>
<path d="M5687 5409 c-118 -28 -126 -66 -24 -120 89 -46 151 -100 191 -163 44
-68 72 -159 67 -212 -2 -19 -114 -73 -246 -119 -144 -50 -189 -79 -264 -173
-254 -314 -355 -662 -295 -1013 39 -224 131 -394 287 -530 193 -167 313 -219
512 -219 117 0 222 17 367 59 115 34 284 93 327 115 134 70 210 343 197 711
-12 354 -67 573 -179 715 -71 90 -172 172 -440 357 -37 26 -47 39 -47 60 0 37
26 66 145 161 106 83 159 137 170 171 17 55 -81 129 -186 139 -42 4 -60 -1
-114 -28 -85 -43 -121 -37 -187 30 -29 30 -63 53 -86 60 -44 12 -142 12 -195
-1z m173 -57 l45 -21 -115 6 c-63 3 -117 8 -120 10 -3 3 4 11 15 20 27 20 116
12 175 -15z m494 -78 c53 -21 31 -91 -53 -167 -52 -46 -106 -73 -116 -57 -10
17 7 36 70 79 37 25 65 52 65 61 0 24 -30 48 -83 66 -26 9 -47 18 -47 20 0 6
147 5 164 -2z m-481 -519 c-180 -49 -260 -111 -492 -385 l-21 -25 6 30 c21
103 111 228 209 290 90 57 230 103 315 104 32 0 30 -2 -17 -14z m-640 -873
c-10 -148 32 -274 161 -489 31 -51 52 -93 48 -93 -14 0 -92 68 -127 110 -77
92 -105 184 -105 340 0 90 15 220 26 220 1 0 0 -39 -3 -88z"/>
</g>
</svg>
